<svg width="1920" height="1063" viewBox="0 0 1920 1063" fill="none" xmlns="http://www.w3.org/2000/svg">
<g opacity="0.1">
<mask id="mask0_1_4024" style="mask-type:luminance" maskUnits="userSpaceOnUse" x="0" y="0" width="1948" height="1063">
<path d="M1948 0H0V1063H1948V0Z" fill="white"/>
</mask>
<g mask="url(#mask0_1_4024)">
<mask id="mask1_1_4024" style="mask-type:luminance" maskUnits="userSpaceOnUse" x="0" y="0" width="1948" height="1063">
<path d="M1948 0H0V1063H1948V0Z" fill="white"/>
</mask>
<g mask="url(#mask1_1_4024)">
<mask id="mask2_1_4024" style="mask-type:luminance" maskUnits="userSpaceOnUse" x="0" y="-1" width="1948" height="1065">
<path d="M1948 -0.133453H0V1063.13H1948V-0.133453Z" fill="white"/>
</mask>
<g mask="url(#mask2_1_4024)">
<path d="M0 1062.76H1947.1M0 1032.39H1947.1M0 1002.04H1947.1M0 971.681H1947.1M0 941.324H1947.1M0 910.968H1947.1M0 880.612H1947.1M0 850.256H1947.1M0 819.892H1947.1M0 789.536H1947.1M0 759.18H1947.1M0 728.825H1947.1M0 698.467H1947.1M0 668.11H1947.1M0 637.753H1947.1M0 607.395H1947.1M0 577.038H1947.1M0 546.68H1947.1M0 516.323H1947.1M0 485.966H1947.1M0 455.609H1947.1M0 425.251H1947.1M0 394.894H1947.1M0 364.536H1947.1M0 334.179H1947.1M0 303.821H1947.1M0 273.463H1947.1M0 243.105H1947.1M0 212.748H1947.1M0 182.39H1947.1M0 152.033H1947.1M0 121.676H1947.1M0 91.3186H1947.1M0 60.9609H1947.1M0 30.6036H1947.1M0 0.246201H1947.1M0.450718 0.625667V1063.14M36.5081 0.625667V1063.14M72.5654 0.625667V1063.14M108.623 0.625667V1063.14M144.68 0.625667V1063.14M180.737 0.625667V1063.14M216.795 0.625667V1063.14M252.852 0.625667V1063.14M288.91 0.625667V1063.14M324.967 0.625667V1063.14M361.025 0.625667V1063.14M397.082 0.625667V1063.14M433.14 0.625667V1063.14M469.196 0.625667V1063.14M505.254 0.625667V1063.14M541.311 0.625667V1063.14M577.371 0.625667V1063.14M613.428 0.625667V1063.14M649.486 0.625667V1063.14M685.543 0.625667V1063.14M721.6 0.625667V1063.14M757.657 0.625667V1063.14M793.715 0.625667V1063.14M829.772 0.625667V1063.14M865.83 0.625667V1063.14M901.888 0.625667V1063.14M937.944 0.625667V1063.14M974 0.625667V1063.14M1010.06 0.625667V1063.14M1046.11 0.625667V1063.14M1082.17 0.625667V1063.14M1118.23 0.625667V1063.14M1154.29 0.625667V1063.14M1190.35 0.625667V1063.14M1226.4 0.625667V1063.14M1262.46 0.625667V1063.14M1298.51 0.625667V1063.14M1334.57 0.625667V1063.14M1370.63 0.625667V1063.14M1406.69 0.625667V1063.14M1442.75 0.625667V1063.14M1478.8 0.625667V1063.14M1514.86 0.625667V1063.14M1550.91 0.625667V1063.14M1586.98 0.625667V1063.14M1623.04 0.625667V1063.14M1659.09 0.625667V1063.14M1695.15 0.625667V1063.14M1731.2 0.625667V1063.14M1767.26 0.625667V1063.14M1803.32 0.625667V1063.14M1839.38 0.625667V1063.14M1875.44 0.625667V1063.14M1911.49 0.625667V1063.14M1947.55 0.625667V1063.14" stroke="#F3F4F7" stroke-width="0.584851"/>
<path d="M1189.89 395.272H1225.95V425.629H1189.89V395.272ZM901.433 395.272H937.492V425.629H901.433V395.272ZM901.433 729.203H937.492V759.559H901.433V729.203ZM649.032 486.344H685.089V516.701H649.032V486.344ZM72.1134 61.3405H108.17V91.6982H72.1134V61.3405ZM829.318 61.3405H865.376V91.6982H829.318V61.3405ZM1370.18 182.77H1406.24V213.128H1370.18V182.77ZM901.433 182.77H937.492V213.128H901.433V182.77ZM1009.6 273.842H1045.66V304.199H1009.6V273.842ZM1334.13 304.199H1370.18V334.557H1334.13V304.199ZM721.147 152.413H757.203V182.77H721.147V152.413ZM216.343 425.629H252.4V455.987H216.343V425.629ZM1298.06 516.701H1334.13V547.059H1298.06V516.701ZM1442.29 729.203H1478.35V759.559H1442.29V729.203ZM1550.46 455.987H1586.53V486.344H1550.46V455.987ZM1694.7 607.773H1730.75V638.13H1694.7V607.773ZM1622.58 152.413H1658.64V182.77H1622.58V152.413ZM72.1134 273.842H108.17V304.199H72.1134V273.842ZM72.1134 759.559H108.17V789.915H72.1134V759.559ZM432.687 122.055H468.744V152.413H432.687V122.055ZM288.458 243.485H324.515V273.842H288.458V243.485ZM504.802 425.629H540.859V455.987H504.802V425.629ZM504.802 911.348H540.859V941.704H504.802V911.348ZM504.802 698.845H540.859V729.203H504.802V698.845ZM1225.95 122.055H1262.01V152.413H1225.95V122.055Z" fill="#F6F7F9"/>
</g>
</g>
</g>
</g>
</svg>
